<svg xmlns="http://www.w3.org/2000/svg" viewBox="0 0 600 300" preserveAspectRatio="xMidYMid slice">
  <defs>
    <linearGradient id="ct-sky" x1="0" y1="0" x2="0" y2="1">
      <stop offset="0%" stop-color="#064e3b"/>
      <stop offset="100%" stop-color="#022c22"/>
    </linearGradient>
  </defs>
  <rect width="600" height="300" fill="url(#ct-sky)"/>
  <g stroke="#10b981" stroke-width="0.4" opacity="0.18">
    <path d="M0 50 L600 50"/><path d="M0 100 L600 100"/><path d="M0 150 L600 150"/>
    <path d="M0 200 L600 200"/><path d="M0 250 L600 250"/>
    <path d="M50 0 L50 300"/><path d="M150 0 L150 300"/><path d="M250 0 L250 300"/>
    <path d="M350 0 L350 300"/><path d="M450 0 L450 300"/><path d="M550 0 L550 300"/>
  </g>
  <g stroke="#34d399" stroke-width="2.5" fill="none">
    <line x1="180" y1="260" x2="180" y2="80"/>
    <line x1="200" y1="260" x2="200" y2="80"/>
    <line x1="180" y1="260" x2="200" y2="80"/>
    <line x1="200" y1="260" x2="180" y2="80"/>
    <line x1="180" y1="220" x2="200" y2="220"/>
    <line x1="180" y1="180" x2="200" y2="180"/>
    <line x1="180" y1="140" x2="200" y2="140"/>
    <line x1="180" y1="100" x2="200" y2="100"/>
    <line x1="190" y1="80" x2="450" y2="80"/>
    <line x1="190" y1="80" x2="190" y2="60"/>
    <line x1="190" y1="80" x2="120" y2="80"/>
    <line x1="120" y1="80" x2="190" y2="60"/>
    <line x1="190" y1="60" x2="450" y2="80"/>
    <line x1="350" y1="80" x2="350" y2="170"/>
    <rect x="335" y="170" width="30" height="20" fill="#10b981" opacity="0.6"/>
  </g>
  <g fill="#34d399" opacity="0.4">
    <circle cx="350" cy="180" r="40" fill="none" stroke="#34d399" stroke-width="1.5"/>
    <circle cx="350" cy="180" r="65" fill="none" stroke="#34d399" stroke-width="1" opacity="0.6"/>
    <circle cx="350" cy="180" r="90" fill="none" stroke="#34d399" stroke-width="0.8" opacity="0.3"/>
  </g>
  <g fill="#022c22" stroke="#10b981" stroke-width="1.5">
    <rect x="50" y="220" width="40" height="40"/>
    <rect x="100" y="200" width="50" height="60"/>
    <rect x="430" y="180" width="55" height="80"/>
    <rect x="495" y="210" width="40" height="50"/>
  </g>
  <text x="40" y="50" font-family="ui-sans-serif, system-ui" font-size="13" font-weight="600" fill="#6ee7b7" letter-spacing="2">CRANE DIGITAL TWIN · UNITY × GO</text>
</svg>
