<svg xmlns="http://www.w3.org/2000/svg" viewBox="0 0 600 300" preserveAspectRatio="xMidYMid slice">
  <defs>
    <linearGradient id="hg-bg" x1="0" y1="0" x2="1" y2="1">
      <stop offset="0%" stop-color="#064e3b"/>
      <stop offset="100%" stop-color="#022c22"/>
    </linearGradient>
    <radialGradient id="hg-germ1" cx="40%" cy="40%" r="60%">
      <stop offset="0%" stop-color="#6ee7b7"/>
      <stop offset="100%" stop-color="#059669"/>
    </radialGradient>
    <radialGradient id="hg-germ2" cx="40%" cy="40%" r="60%">
      <stop offset="0%" stop-color="#a7f3d0"/>
      <stop offset="100%" stop-color="#10b981"/>
    </radialGradient>
  </defs>
  <rect width="600" height="300" fill="url(#hg-bg)"/>
  <g opacity="0.6">
    <circle cx="120" cy="110" r="2" fill="#a7f3d0"/>
    <circle cx="500" cy="220" r="2.5" fill="#a7f3d0"/>
    <circle cx="80" cy="240" r="1.5" fill="#a7f3d0"/>
    <circle cx="540" cy="60" r="2" fill="#a7f3d0"/>
    <circle cx="320" cy="40" r="1.5" fill="#a7f3d0"/>
    <circle cx="220" cy="260" r="2" fill="#a7f3d0"/>
  </g>
  <g transform="translate(150 170)">
    <circle r="55" fill="url(#hg-germ1)"/>
    <g fill="none" stroke="#022c22" stroke-width="2.5">
      <line x1="0" y1="-55" x2="0" y2="-72"/>
      <line x1="38" y1="-38" x2="50" y2="-50"/>
      <line x1="55" y1="0" x2="72" y2="0"/>
      <line x1="38" y1="38" x2="50" y2="50"/>
      <line x1="0" y1="55" x2="0" y2="72"/>
      <line x1="-38" y1="38" x2="-50" y2="50"/>
      <line x1="-55" y1="0" x2="-72" y2="0"/>
      <line x1="-38" y1="-38" x2="-50" y2="-50"/>
    </g>
    <circle cx="-72" cy="-2" r="4" fill="#022c22"/>
    <circle cx="72" cy="-2" r="4" fill="#022c22"/>
    <circle cx="0" cy="-72" r="4" fill="#022c22"/>
    <circle cx="0" cy="72" r="4" fill="#022c22"/>
    <circle cx="-50" cy="-50" r="4" fill="#022c22"/>
    <circle cx="50" cy="-50" r="4" fill="#022c22"/>
    <circle cx="-50" cy="50" r="4" fill="#022c22"/>
    <circle cx="50" cy="50" r="4" fill="#022c22"/>
    <circle cx="-15" cy="-8" r="6" fill="#022c22"/>
    <circle cx="15" cy="-8" r="6" fill="#022c22"/>
    <path d="M -15 15 Q 0 28 15 15" stroke="#022c22" stroke-width="3" fill="none" stroke-linecap="round"/>
  </g>
  <g transform="translate(440 150) scale(0.7)">
    <circle r="55" fill="url(#hg-germ2)"/>
    <g fill="none" stroke="#022c22" stroke-width="2.5">
      <line x1="0" y1="-55" x2="0" y2="-72"/>
      <line x1="38" y1="-38" x2="50" y2="-50"/>
      <line x1="55" y1="0" x2="72" y2="0"/>
      <line x1="38" y1="38" x2="50" y2="50"/>
      <line x1="0" y1="55" x2="0" y2="72"/>
      <line x1="-38" y1="38" x2="-50" y2="50"/>
      <line x1="-55" y1="0" x2="-72" y2="0"/>
      <line x1="-38" y1="-38" x2="-50" y2="-50"/>
    </g>
    <circle cx="-15" cy="-8" r="6" fill="#022c22"/>
    <circle cx="15" cy="-8" r="6" fill="#022c22"/>
    <path d="M -12 18 Q 0 8 12 18" stroke="#022c22" stroke-width="3" fill="none" stroke-linecap="round"/>
  </g>
  <text x="40" y="50" font-family="ui-sans-serif, system-ui" font-size="13" font-weight="600" fill="#6ee7b7" letter-spacing="2">HIT THE GERMS · UNITY 2D</text>
</svg>
